<?xml version="1.0" encoding="UTF-8"?>
<!DOCTYPE svg  PUBLIC '-//W3C//DTD SVG 1.1//EN'  'http://www.w3.org/Graphics/SVG/1.1/DTD/svg11.dtd'>
<svg width="256px" height="256px" fill="#000000" stroke="#000000" stroke-width=".00512" version="1.1" viewBox="0 0 512 512" xml:space="preserve" xmlns="http://www.w3.org/2000/svg">





 <circle cx="256" cy="256" r="256" fill="#31BAFD"/> <path d="m508.03 211.07-103.55-103.55-212.92 227.04-56.327 59.575 117.83 117.83c66.489 0.757 133.22-24.214 183.95-74.945 61.463-61.464 85.124-146.4 71.014-225.95z" fill="#2B9ED8"/> <polygon points="213.41 333.34 178.66 298.6 369.74 107.52 404.48 107.52 404.48 142.26" fill="#E6F3FF"/> <polygon points="196.04 315.97 213.41 333.34 404.48 142.26 404.48 107.52" fill="#CFDBE6"/> <polygon points="145.85 387.85 124.15 366.15 175.57 293.04 218.96 336.43" fill="#935635"/> <polygon points="135 377 145.85 387.85 218.96 336.43 197.27 314.74" fill="#804000"/> <path d="m224.2 344.13-56.322-56.322c-3.634-3.634-3.634-9.526 0-13.16l4.212-4.211c3.634-3.634 9.526-3.634 13.16 0l56.322 56.322c3.634 3.634 3.634 9.526 0 13.16l-4.211 4.211c-3.635 3.634-9.527 3.634-13.161 0z" fill="#FFD15D"/> <path d="m213.41 298.6-17.37 17.37 28.16 28.16c3.634 3.634 9.526 3.634 13.16 0l4.211-4.211c3.634-3.634 3.634-9.526 0-13.16l-28.161-28.159z" fill="#F9B54C"/> <path d="m143.41 402.31-33.718-33.718c-2.9-2.9-2.9-7.599 0-10.499l6.873-6.873c2.9-2.9 7.599-2.9 10.499 0l33.718 33.718c2.9 2.9 2.9 7.599 0 10.499l-6.873 6.873c-2.9 2.9-7.601 2.9-10.499 0z" fill="#FFD15D"/> <path d="m143.92 368.08-17.37 17.37 16.858 16.858c2.9 2.9 7.599 2.9 10.499 0l6.873-6.873c2.9-2.9 2.9-7.599 0-10.499l-16.86-16.856z" fill="#F9B54C"/> <polygon points="333.34 298.6 298.6 333.34 107.52 142.26 107.52 107.52 142.26 107.52" fill="#CFDBE6"/> <polygon points="108.1 107.52 107.52 107.52 107.52 142.26 298.6 333.34 316.25 315.68" fill="#B8C9D9"/> <polygon points="387.85 366.15 366.15 387.85 293.04 336.43 336.43 293.04" fill="#935635"/> <polygon points="315.02 314.45 293.04 336.43 366.15 387.85 377.29 376.71" fill="#804000"/> <path d="m344.13 287.8-56.322 56.322c-3.634 3.634-9.526 3.634-13.16 0l-4.211-4.211c-3.634-3.634-3.634-9.526 0-13.16l56.322-56.322c3.634-3.634 9.526-3.634 13.16 0l4.211 4.211c3.634 3.636 3.634 9.526 0 13.16z" fill="#FFD15D"/> <path d="m298.88 298.31-28.45 28.45c-3.634 3.634-3.634 9.526 0 13.16l4.211 4.211c3.634 3.634 9.526 3.634 13.16 0l28.45-28.45-17.371-17.371z" fill="#F9B54C"/> <path d="m402.31 368.59-33.718 33.718c-2.9 2.9-7.599 2.9-10.499 0l-6.873-6.873c-2.9-2.9-2.9-7.599 0-10.499l33.718-33.718c2.9-2.9 7.599-2.9 10.499 0l6.873 6.873c2.898 2.9 2.898 7.599 0 10.499z" fill="#FFD15D"/> <path d="m368.37 367.79-17.148 17.148c-2.9 2.9-2.9 7.599 0 10.499l6.873 6.873c2.9 2.9 7.599 2.9 10.499 0l17.148-17.148-17.372-17.372z" fill="#F9B54C"/> 

</svg>
