<?xml version="1.0" encoding="UTF-8"?>
<!DOCTYPE svg  PUBLIC '-//W3C//DTD SVG 1.1//EN'  'http://www.w3.org/Graphics/SVG/1.1/DTD/svg11.dtd'>
<svg width="256px" height="256px" fill="#000000" version="1.1" viewBox="0 0 415.15 415.15" xml:space="preserve" xmlns="http://www.w3.org/2000/svg">





  <path d="m415.15 207.58c0-114.64-92.932-207.58-207.57-207.58-114.65 0-207.58 92.935-207.58 207.58 0 114.64 92.932 207.58 207.58 207.58 114.64 0 207.57-92.934 207.57-207.58z" fill="#ED8870"/> <path d="m85.856 347.42c0-3.27-3.252-6.243-8.561-8.463h290.98c2.663-3.253 5.226-6.591 7.691-10.005 0.094-0.13 0.191-0.259 0.283-0.39 0.686-0.954 1.359-1.918 2.029-2.883 0.208-0.299 0.417-0.597 0.623-0.898 0.627-0.915 1.245-1.836 1.857-2.761 0.234-0.353 0.467-0.706 0.699-1.06 0.596-0.913 1.186-1.829 1.768-2.752 0.226-0.358 0.449-0.719 0.673-1.078 0.585-0.939 1.166-1.881 1.737-2.831 0.18-0.3 0.357-0.604 0.536-0.906 2.059-3.468 4.025-6.999 5.885-10.593 0.024-0.047 0.051-0.095 0.075-0.142 0.496-0.96 0.977-1.928 1.458-2.897 0.216-0.436 0.436-0.87 0.649-1.308 0.434-0.888 0.856-1.783 1.277-2.679 0.247-0.524 0.493-1.048 0.735-1.575 0.397-0.864 0.788-1.732 1.174-2.603 0.251-0.566 0.499-1.135 0.745-1.704 0.37-0.853 0.737-1.709 1.095-2.57 0.247-0.591 0.487-1.188 0.727-1.782 0.347-0.853 0.693-1.708 1.029-2.568 0.235-0.603 0.461-1.211 0.69-1.816 0.327-0.863 0.658-1.723 0.974-2.59 0.178-0.488 0.344-0.981 0.518-1.47 0.592-1.668 1.163-3.347 1.715-5.034 0.238-0.732 0.482-1.463 0.712-2.197 0.242-0.77 0.472-1.545 0.706-2.318 0.23-0.763 0.459-1.525 0.681-2.292 0.22-0.762 0.432-1.527 0.644-2.292 0.218-0.789 0.433-1.58 0.642-2.374 0.198-0.753 0.393-1.509 0.584-2.265 0.207-0.823 0.407-1.648 0.604-2.475 0.175-0.733 0.349-1.467 0.516-2.203 0.201-0.887 0.391-1.779 0.582-2.67 0.145-0.684 0.295-1.366 0.433-2.053 0.22-1.084 0.424-2.175 0.626-3.265 0.093-0.501 0.194-0.997 0.283-1.498 0.279-1.567 0.538-3.141 0.782-4.72 0.084-0.546 0.157-1.095 0.237-1.642 0.156-1.077 0.312-2.154 0.452-3.235 0.083-0.646 0.158-1.294 0.236-1.942 0.119-0.992 0.235-1.986 0.34-2.983 0.072-0.675 0.137-1.353 0.202-2.032 0.095-0.982 0.182-1.966 0.262-2.952 0.056-0.679 0.109-1.357 0.157-2.038 0.073-1.014 0.135-2.029 0.194-3.046 0.036-0.649 0.076-1.297 0.107-1.948 0.053-1.118 0.092-2.239 0.128-3.361 0.018-0.551 0.041-1.1 0.054-1.651 0.04-1.674 0.064-3.353 0.064-5.037 3e-3 -114.64-92.929-207.58-207.57-207.58-1.614 0-3.224 0.024-4.83 0.061-0.967 0.023-1.932 0.06-2.897 0.097-0.555 0.02-1.112 0.039-1.666 0.063-1.271 0.058-2.539 0.128-3.805 0.208-0.18 0.013-0.359 0.023-0.54 0.035-1.414 0.094-2.825 0.199-4.231 0.319l-183.03 258.82 9e-3 0.036c0.438 1.697 0.899 3.384 1.378 5.062 0.115 0.4 0.239 0.796 0.355 1.194 0.378 1.296 0.762 2.588 1.164 3.872 0.153 0.485 0.315 0.964 0.47 1.448 0.386 1.198 0.775 2.394 1.181 3.583 0.17 0.496 0.349 0.987 0.522 1.481 0.412 1.175 0.829 2.349 1.261 3.514 0.176 0.474 0.359 0.944 0.54 1.416 0.449 1.185 0.905 2.368 1.376 3.543 0.175 0.434 0.354 0.866 0.531 1.299 0.497 1.215 1.001 2.426 1.519 3.628 0.164 0.379 0.331 0.757 0.497 1.135 0.552 1.261 1.116 2.517 1.693 3.766 0.144 0.311 0.29 0.621 0.434 0.929 0.62 1.322 1.251 2.637 1.898 3.944 0.114 0.23 0.228 0.459 0.344 0.689 0.698 1.399 1.411 2.789 2.139 4.17 0.072 0.134 0.141 0.269 0.213 0.401 0.793 1.494 1.603 2.978 2.431 4.451 0.012 0.02 0.022 0.04 0.035 0.061 5.205 9.242 11.098 18.047 17.608 26.345 0 0-0.015 2e-3 -0.021 3e-3 6.545 8.344 13.723 16.167 21.448 23.415 11.859-1.82 20.254-6.312 20.254-11.569z" fill="#E06F54"/> <path d="m35.605 250.42v49.906h357.71c7.813-15.616 13.718-32.351 17.402-49.906h-375.11z" fill="#EA7053"/>  <polygon points="214.36 134.64 165.58 134.64 146.27 162.81 196 162.81" fill="#fff"/> <polygon points="200.39 218.32 252.81 218.32 268.05 194.92 215.63 194.92" fill="#fff"/> <path d="m410.3 162.81c-0.385-1.753-0.792-3.498-1.222-5.234l-3.41 5.234h4.632z" fill="#fff"/> <polygon points="289.02 20.039 244.15 20.039 228.54 42.815 274.18 42.815" fill="#fff"/> <polygon points="253.26 74.923 206.53 74.923 187.6 102.53 235.27 102.53" fill="#fff"/> <polygon points="159.84 218.32 175.08 194.92 124.26 194.92 108.22 218.32" fill="#fff"/> <polygon points="293.36 218.32 328.96 218.32 344.2 194.92 308.6 194.92" fill="#fff"/> <polygon points="254.9 134.64 236.55 162.81 288.97 162.81 307.32 134.64" fill="#fff"/> <path d="m333.83 42.815c-4.233-3.249-8.593-6.339-13.074-9.259l-6.032 9.259h19.106z" fill="#fff"/> <path d="m369.51 218.32h45.372c0.181-3.557 0.274-7.138 0.274-10.74 0-4.251-0.143-8.469-0.395-12.657h-30.01l-15.241 23.397z" fill="#fff"/> <polygon points="365.12 162.81 383.47 134.64 347.87 134.64 329.52 162.81" fill="#fff"/> <polygon points="328.24 102.53 346.23 74.923 293.81 74.923 275.82 102.53" fill="#fff"/> <path d="m386.64 102.53c-2.776-4.721-5.731-9.323-8.86-13.795l-8.988 13.795h17.848z" fill="#fff"/> <path d="m410.72 250.42c2.19-10.437 3.606-21.158 4.164-32.107h-45.372l15.241-23.397h30.01c-0.659-10.954-2.167-21.677-4.46-32.108h-4.631l3.41-5.234c-4.846-19.594-12.473-38.088-22.441-55.044h-17.847l8.988-13.795c-12.219-17.467-27.056-32.962-43.944-45.923h-19.106l6.032-9.259c-32.556-21.217-71.424-33.557-113.18-33.557-0.097 0-0.193 4e-3 -0.291 4e-3l-171.68 250.42h375.11zm-157.9-32.107h-52.424l15.243-23.397h52.422l-15.241 23.397zm-16.263-55.505 18.353-28.171h52.422l-18.353 28.171h-52.422zm92.411 55.505h-35.602l15.242-23.397h35.602l-15.242 23.397zm54.513-83.675-18.353 28.171h-35.603l18.354-28.171h35.602zm-37.242-59.719-17.99 27.611h-52.421l17.986-27.611h52.425zm-102.08-54.884h44.862l-14.837 22.776h-45.639l15.614-22.776zm-37.627 54.884h46.733l-17.986 27.611h-47.676l18.929-27.611zm-40.942 59.719h48.771l-18.355 28.171h-49.73l19.314-28.171zm9.498 60.278-15.242 23.397h-51.623l16.04-23.397h50.825z" fill="#505B66"/>  <path d="m35.605 250.42v49.906h357.71c7.813-15.616 13.718-32.351 17.402-49.906h-375.11z" fill="#F5ECE1"/> <path d="m35.605 250.42v49.906h357.71c7.813-15.616 13.718-32.351 17.402-49.906h-375.11z" fill="#F5ECE1"/> <path d="m35.605 250.42v49.906h357.71c7.813-15.616 13.718-32.351 17.402-49.906h-375.11z" fill="#F5ECE1"/> <path d="m147.63 200.14h-3.994c2.35-1.83 3.869-4.683 3.869-7.892 0-3.493-1.791-6.565-4.502-8.356 3.868-1.996 6.517-6.023 6.517-10.676 0-6.64-5.381-12.021-12.021-12.021s-12.021 5.38-12.021 12.021c0 4.653 2.647 8.68 6.516 10.676-2.712 1.791-4.504 4.863-4.504 8.356 0 3.21 1.521 6.062 3.871 7.892h-3.991c-5.77 0-10.444 4.677-10.444 10.446 0 0.215 0.018 0.426 0.032 0.64h41.084c0.013-0.214 0.032-0.425 0.032-0.64 1e-3 -5.769-4.676-10.446-10.444-10.446z" fill="#00B5AE"/> <path d="m186.24 144.04h-3.994c2.35-1.829 3.87-4.683 3.87-7.892 0-3.492-1.792-6.565-4.505-8.356 3.87-1.995 6.518-6.023 6.518-10.676 0-6.64-5.38-12.02-12.019-12.02-6.643 0-12.023 5.379-12.023 12.02 0 4.653 2.648 8.682 6.516 10.676-2.711 1.791-4.502 4.864-4.502 8.356 0 3.21 1.519 6.063 3.87 7.892h-3.991c-5.769 0-10.444 4.678-10.444 10.446 0 0.215 0.019 0.427 0.032 0.641h41.084c0.013-0.214 0.032-0.426 0.032-0.641 0-5.767-4.676-10.446-10.444-10.446z" fill="#00B5AE"/> <path d="m237.65 200.14h-3.995c2.351-1.83 3.87-4.683 3.87-7.892 0-3.493-1.791-6.565-4.501-8.356 3.867-1.996 6.516-6.023 6.516-10.676 0-6.64-5.381-12.021-12.021-12.021s-12.022 5.38-12.022 12.021c0 4.653 2.648 8.68 6.517 10.676-2.712 1.791-4.504 4.863-4.504 8.356 0 3.21 1.521 6.062 3.871 7.892h-3.991c-5.77 0-10.445 4.677-10.445 10.446 0 0.215 0.018 0.426 0.033 0.64h41.084c0.013-0.214 0.032-0.425 0.032-0.64 0-5.769-4.676-10.446-10.444-10.446z" fill="#00B5AE"/> <path d="m147.63 200.14h-3.994c2.35-1.83 3.869-4.683 3.869-7.892 0-3.493-1.791-6.565-4.502-8.356 3.868-1.996 6.517-6.023 6.517-10.676 0-6.64-5.381-12.021-12.021-12.021-0.905 0-1.785 0.11-2.634 0.299 5.37 1.202 9.384 5.986 9.384 11.721 0 4.653-2.649 8.68-6.517 10.676 2.711 1.791 4.503 4.863 4.503 8.356 0 3.21-1.519 6.062-3.87 7.892h3.995c5.768 0 10.444 4.677 10.444 10.446 0 0.215-0.019 0.426-0.032 0.64h5.271c0.013-0.214 0.032-0.425 0.032-0.64 0-5.768-4.677-10.445-10.445-10.445z" fill="#009993"/> <path d="m186.24 144.04h-3.994c2.35-1.829 3.87-4.683 3.87-7.892 0-3.492-1.792-6.565-4.505-8.356 3.87-1.995 6.518-6.023 6.518-10.676 0-6.64-5.38-12.02-12.019-12.02-0.907 0-1.787 0.109-2.636 0.297 5.37 1.204 9.384 5.99 9.384 11.722 0 4.653-2.649 8.682-6.518 10.676 2.713 1.791 4.505 4.864 4.505 8.356 0 3.21-1.52 6.063-3.87 7.892h3.994c5.769 0 10.444 4.678 10.444 10.446 0 0.215-0.019 0.427-0.032 0.641h5.271c0.013-0.214 0.032-0.426 0.032-0.641 0-5.766-4.676-10.445-10.444-10.445z" fill="#009993"/> <path d="m237.65 200.14h-3.995c2.351-1.83 3.87-4.683 3.87-7.892 0-3.493-1.791-6.565-4.501-8.356 3.867-1.996 6.516-6.023 6.516-10.676 0-6.64-5.381-12.021-12.021-12.021-0.906 0-1.787 0.11-2.634 0.299 5.37 1.202 9.384 5.986 9.384 11.721 0 4.653-2.649 8.68-6.518 10.676 2.712 1.791 4.504 4.863 4.504 8.356 0 3.21-1.519 6.062-3.871 7.892h3.996c5.768 0 10.444 4.677 10.444 10.446 0 0.215-0.019 0.426-0.032 0.64h5.271c0.013-0.214 0.032-0.425 0.032-0.64-1e-3 -5.768-4.677-10.445-10.445-10.445z" fill="#009993"/> <path d="m53.423 323.65 1.794 3.569c-2.691-1.278-5.923-1.353-8.789 0.089-3.121 1.57-5.06 4.55-5.443 7.776-3.519-2.558-8.307-3.115-12.465-1.024-5.932 2.983-8.32 10.208-5.337 16.14s10.208 8.322 16.141 5.339c4.157-2.091 6.565-6.266 6.609-10.619 2.819 1.617 6.368 1.838 9.489 0.268 2.867-1.442 4.732-4.082 5.311-7.004l1.793 3.566c2.593 5.155 8.872 7.23 14.027 4.637 0.192-0.097 0.372-0.207 0.556-0.316l-18.461-36.703c-0.196 0.084-0.393 0.162-0.585 0.259-5.154 2.591-7.232 8.87-4.64 14.023z" fill="#00B5AE"/> <path d="m53.423 323.65 1.794 3.569c-2.691-1.278-5.923-1.353-8.789 0.089-3.121 1.57-5.06 4.55-5.443 7.776-3.519-2.558-8.307-3.115-12.465-1.024-5.932 2.983-8.32 10.208-5.337 16.14 0.408 0.81 0.901 1.548 1.451 2.219-1.338-5.337 1.131-11.073 6.255-13.651 4.157-2.091 8.945-1.534 12.467 1.026 0.381-3.229 2.321-6.208 5.441-7.779 2.867-1.441 6.098-1.366 8.79-0.086l-1.794-3.57c-2.592-5.153-0.514-11.433 4.639-14.025 0.192-0.097 0.39-0.175 0.586-0.259l-2.369-4.708c-0.196 0.084-0.393 0.162-0.585 0.259-5.155 2.592-7.233 8.871-4.641 14.024z" fill="#009993"/> <ellipse cx="170.77" cy="371.53" rx="31.979" ry="12.435" fill="#E06F54"/> <path d="m165.58 354.46-3.399 2.096c1.039-2.791 0.835-6.018-0.85-8.748-1.835-2.975-4.97-4.648-8.218-4.751 2.244-3.727 2.384-8.546-0.06-12.506-3.485-5.652-10.89-7.404-16.54-3.919-5.653 3.486-7.408 10.889-3.922 16.542 2.443 3.96 6.811 5.997 11.15 5.665-1.366 2.947-1.279 6.501 0.556 9.476 1.684 2.731 4.476 4.36 7.437 4.683l-3.396 2.097c-4.911 3.03-6.435 9.466-3.407 14.376 0.114 0.182 0.238 0.352 0.364 0.526l34.965-21.568c-0.099-0.189-0.195-0.378-0.308-0.561-3.027-4.911-9.463-6.438-14.372-3.408z" fill="#00B5AE"/> <path d="m165.58 354.46-3.399 2.096c1.039-2.791 0.835-6.018-0.85-8.748-1.835-2.975-4.97-4.648-8.218-4.751 2.244-3.727 2.384-8.546-0.06-12.506-3.485-5.652-10.89-7.404-16.54-3.919-0.772 0.475-1.465 1.03-2.085 1.637 5.202-1.795 11.128 0.166 14.14 5.049 2.442 3.96 2.304 8.777 0.058 12.509 3.25 0.1 6.386 1.776 8.22 4.747 1.684 2.732 1.888 5.957 0.847 8.749l3.401-2.096c4.91-3.028 11.345-1.503 14.374 3.407 0.115 0.182 0.21 0.373 0.31 0.561l4.484-2.767c-0.099-0.189-0.195-0.378-0.308-0.561-3.029-4.91-9.465-6.437-14.374-3.407z" fill="#009993"/> <path d="m411.94 244.16c-0.09 0.502-0.191 0.998-0.283 1.498 0.092-0.5 0.193-0.997 0.283-1.498z" fill="#ED8870"/> <path d="m411.03 248.93c-0.138 0.687-0.288 1.369-0.433 2.053 0.146-0.685 0.295-1.366 0.433-2.053z" fill="#ED8870"/> <path d="m404.92 272.07c-0.552 1.687-1.123 3.366-1.715 5.034 0.592-1.668 1.163-3.347 1.715-5.034z" fill="#ED8870"/> <path d="m410.01 253.65c-0.168 0.737-0.341 1.47-0.516 2.203 0.174-0.733 0.349-1.466 0.516-2.203z" fill="#ED8870"/> <path d="m406.34 267.55c-0.234 0.773-0.464 1.548-0.706 2.318 0.242-0.77 0.472-1.545 0.706-2.318z" fill="#ED8870"/> <path d="m407.67 262.97c-0.212 0.765-0.423 1.53-0.644 2.292 0.221-0.762 0.432-1.527 0.644-2.292z" fill="#ED8870"/> <path d="m402.69 278.57c-0.316 0.867-0.647 1.727-0.974 2.59 0.327-0.863 0.658-1.723 0.974-2.59z" fill="#ED8870"/> <path d="m408.89 258.33c-0.191 0.756-0.386 1.512-0.584 2.265 0.198-0.753 0.393-1.509 0.584-2.265z" fill="#ED8870"/> <path d="m19.075 294.58c-0.577-1.249-1.141-2.505-1.693-3.766 0.552 1.262 1.117 2.517 1.693 3.766z" fill="#ED8870"/> <path d="m16.885 289.68c-0.518-1.202-1.022-2.413-1.519-3.628 0.496 1.215 1 2.425 1.519 3.628z" fill="#ED8870"/> <path d="m14.834 284.76c-0.471-1.175-0.927-2.357-1.376-3.543 0.449 1.186 0.905 2.368 1.376 3.543z" fill="#ED8870"/> <path d="m21.407 299.46c-0.647-1.307-1.278-2.622-1.898-3.944 0.619 1.323 1.252 2.638 1.898 3.944z" fill="#ED8870"/> <path d="m26.533 309.17c-0.828-1.473-1.637-2.957-2.431-4.451 0.793 1.495 1.603 2.978 2.431 4.451z" fill="#ED8870"/> <path d="m12.919 279.8c-0.432-1.165-0.849-2.339-1.261-3.514 0.411 1.175 0.829 2.349 1.261 3.514z" fill="#ED8870"/> <path d="m11.136 274.8c-0.407-1.189-0.796-2.385-1.181-3.583 0.385 1.198 0.774 2.394 1.181 3.583z" fill="#ED8870"/> <path d="m7.965 264.7c-0.479-1.678-0.94-3.366-1.378-5.062 0.438 1.696 0.899 3.383 1.378 5.062z" fill="#ED8870"/> <path d="m9.484 269.77c-0.402-1.285-0.786-2.576-1.164-3.872 0.378 1.296 0.762 2.588 1.164 3.872z" fill="#ED8870"/> <path d="m23.89 304.32c-0.728-1.38-1.441-2.77-2.139-4.17 0.697 1.4 1.411 2.789 2.139 4.17z" fill="#ED8870"/> <path d="m26.568 309.23c5.201 9.242 11.079 18.052 17.587 26.348 6e-3 -1e-3 0.014-2e-3 0.014-2e-3 -6.503-8.3-12.395-17.104-17.601-26.346z" fill="#ED8870"/> <path d="m385.64 314.3c-0.57 0.95-1.152 1.892-1.737 2.831 0.586-0.94 1.167-1.88 1.737-2.831z" fill="#ED8870"/> <path d="m397.43 291.6c-0.386 0.87-0.777 1.739-1.174 2.603 0.398-0.864 0.789-1.733 1.174-2.603z" fill="#ED8870"/> <path d="m393.6 299.76c-0.482 0.968-0.962 1.937-1.458 2.897 0.495-0.96 0.976-1.929 1.458-2.897z" fill="#ED8870"/> <path d="m395.52 295.78c-0.421 0.896-0.843 1.79-1.277 2.679 0.433-0.89 0.856-1.783 1.277-2.679z" fill="#ED8870"/> <path d="m380.76 322.02c-0.612 0.925-1.23 1.846-1.857 2.761 0.627-0.915 1.245-1.836 1.857-2.761z" fill="#ED8870"/> <path d="m401.03 282.98c-0.336 0.86-0.683 1.714-1.029 2.568 0.346-0.853 0.693-1.708 1.029-2.568z" fill="#ED8870"/> <path d="m383.23 318.21c-0.582 0.923-1.172 1.84-1.768 2.752 0.596-0.912 1.186-1.829 1.768-2.752z" fill="#ED8870"/> <path d="m378.28 325.68c-0.67 0.965-1.343 1.929-2.029 2.883 0.687-0.954 1.359-1.917 2.029-2.883z" fill="#ED8870"/> <path d="m399.27 287.33c-0.358 0.861-0.725 1.716-1.095 2.57 0.37-0.853 0.737-1.709 1.095-2.57z" fill="#ED8870"/> <path d="m392.06 302.8c-1.86 3.594-3.826 7.125-5.885 10.593 2.059-3.469 4.025-6.999 5.885-10.593z" fill="#ED8870"/> <path d="m378.91 324.78c-0.205 0.3-0.415 0.599-0.623 0.898 0.208-0.299 0.417-0.597 0.623-0.898z" fill="#ED8870" opacity=".34"/> <path d="m9.954 271.22c-0.155-0.484-0.317-0.963-0.47-1.448 0.153 0.485 0.315 0.964 0.47 1.448z" fill="#ED8870" opacity=".34"/> <path d="m8.32 265.9c-0.116-0.398-0.24-0.793-0.355-1.194 0.115 0.4 0.239 0.795 0.355 1.194z" fill="#ED8870" opacity=".34"/> <path d="m381.46 320.96c-0.232 0.354-0.465 0.707-0.699 1.06 0.235-0.353 0.468-0.706 0.699-1.06z" fill="#ED8870" opacity=".34"/> <path d="m6.577 259.61 9e-3 0.036c-2e-3 -0.012-6e-3 -0.024-9e-3 -0.036z" fill="#ED8870" opacity=".34"/> <path d="m24.103 304.72c-0.072-0.133-0.141-0.268-0.213-0.401 0.071 0.133 0.141 0.268 0.213 0.401z" fill="#ED8870" opacity=".34"/> <path d="m19.509 295.51c-0.144-0.309-0.29-0.619-0.434-0.929 0.145 0.311 0.289 0.621 0.434 0.929z" fill="#ED8870" opacity=".34"/> <path d="m21.751 300.15c-0.116-0.23-0.23-0.459-0.344-0.689 0.114 0.23 0.228 0.46 0.344 0.689z" fill="#ED8870" opacity=".34"/> <path d="m26.568 309.23c-0.013-0.021-0.023-0.041-0.035-0.061 0.012 0.019 0.023 0.039 0.035 0.061z" fill="#ED8870" opacity=".34"/> <path d="m17.382 290.82c-0.166-0.378-0.333-0.756-0.497-1.135 0.164 0.379 0.331 0.757 0.497 1.135z" fill="#ED8870" opacity=".34"/> <path d="m376.26 328.56c-0.093 0.131-0.19 0.26-0.283 0.39 0.093-0.13 0.19-0.259 0.283-0.39z" fill="#ED8870" opacity=".34"/> <path d="m13.458 281.21c-0.18-0.472-0.364-0.942-0.54-1.416 0.176 0.474 0.36 0.944 0.54 1.416z" fill="#ED8870" opacity=".34"/> <path d="m401.72 281.16c-0.23 0.605-0.455 1.213-0.69 1.816 0.235-0.603 0.46-1.211 0.69-1.816z" fill="#ED8870" opacity=".34"/> <path d="m15.365 286.06c-0.177-0.433-0.356-0.865-0.531-1.299 0.175 0.434 0.354 0.866 0.531 1.299z" fill="#ED8870" opacity=".34"/> <path d="m11.657 276.28c-0.173-0.494-0.352-0.985-0.522-1.481 0.17 0.496 0.348 0.987 0.522 1.481z" fill="#ED8870" opacity=".34"/> <path d="m409.5 255.85c-0.197 0.827-0.397 1.652-0.604 2.475 0.207-0.823 0.407-1.648 0.604-2.475z" fill="#ED8870" opacity=".34"/> <path d="m411.65 245.66c-0.202 1.091-0.406 2.181-0.626 3.265 0.221-1.084 0.424-2.174 0.626-3.265z" fill="#ED8870" opacity=".34"/> <path d="m410.59 250.98c-0.191 0.891-0.38 1.783-0.582 2.67 0.202-0.887 0.392-1.778 0.582-2.67z" fill="#ED8870" opacity=".34"/> <path d="m396.26 294.2c-0.242 0.527-0.489 1.052-0.735 1.575 0.247-0.523 0.493-1.048 0.735-1.575z" fill="#ED8870" opacity=".34"/> <path d="m398.18 289.9c-0.246 0.569-0.494 1.138-0.745 1.704 0.251-0.566 0.5-1.135 0.745-1.704z" fill="#ED8870" opacity=".34"/> <path d="m408.31 260.59c-0.209 0.794-0.424 1.585-0.642 2.374 0.218-0.789 0.433-1.579 0.642-2.374z" fill="#ED8870" opacity=".34"/> <path d="m407.02 265.26c-0.221 0.767-0.451 1.529-0.681 2.292 0.23-0.763 0.46-1.525 0.681-2.292z" fill="#ED8870" opacity=".34"/> <path d="m403.21 277.1c-0.175 0.489-0.34 0.982-0.518 1.47 0.178-0.488 0.343-0.981 0.518-1.47z" fill="#ED8870" opacity=".34"/> <path d="m400 285.54c-0.24 0.594-0.48 1.191-0.727 1.782 0.247-0.591 0.487-1.186 0.727-1.782z" fill="#ED8870" opacity=".34"/> <path d="m405.64 269.87c-0.231 0.734-0.474 1.465-0.712 2.197 0.237-0.732 0.481-1.462 0.712-2.197z" fill="#ED8870" opacity=".34"/> <path d="m386.18 313.4c-0.179 0.302-0.356 0.606-0.536 0.906 0.18-0.3 0.357-0.604 0.536-0.906z" fill="#ED8870" opacity=".34"/> <path d="m394.24 298.46c-0.213 0.437-0.433 0.871-0.649 1.308 0.216-0.436 0.436-0.87 0.649-1.308z" fill="#ED8870" opacity=".34"/> <path d="m383.9 317.13c-0.224 0.359-0.448 0.72-0.673 1.078 0.225-0.358 0.448-0.718 0.673-1.078z" fill="#ED8870" opacity=".34"/> <path d="m392.14 302.66c-0.024 0.047-0.051 0.095-0.075 0.142 0.024-0.047 0.05-0.095 0.075-0.142z" fill="#ED8870" opacity=".34"/> <path d="m412.72 239.44c-0.243 1.578-0.503 3.153-0.782 4.72 0.279-1.567 0.538-3.141 0.782-4.72z" fill="#ED8870" opacity=".34"/> <path d="m129.56 387.08c0-6.866-14.317-12.434-31.979-12.434-4.231 0-8.265 0.322-11.962 0.903 10.776 7.838 22.334 14.662 34.536 20.338 5.81-2.252 9.405-5.367 9.405-8.807z" fill="#ED8870"/> <path d="m129.56 387.08c0-6.866-14.317-12.434-31.979-12.434-4.231 0-8.265 0.322-11.962 0.903 10.776 7.838 22.334 14.662 34.536 20.338 5.81-2.252 9.405-5.367 9.405-8.807z" fill="#E06F54"/> <path d="m106.42 388.17-3.811-1.197c2.79-1.042 5.094-3.31 6.053-6.373 1.045-3.333 0.255-6.799-1.795-9.321 4.286-0.745 8.019-3.797 9.411-8.238 1.987-6.335-1.539-13.079-7.875-15.065s-13.081 1.54-15.067 7.876c-1.392 4.439-0.069 9.076 3.026 12.135-3.122 0.9-5.75 3.294-6.795 6.628-0.961 3.062-0.363 6.239 1.333 8.689l-3.808-1.195c-5.507-1.725-11.366 1.341-13.091 6.847-0.064 0.204-0.112 0.41-0.161 0.619l39.203 12.286c0.077-0.199 0.158-0.395 0.222-0.601 1.723-5.504-1.34-11.366-6.845-13.09z" fill="#00B5AE"/> <path d="m106.42 388.17-3.811-1.197c2.79-1.042 5.094-3.31 6.053-6.373 1.045-3.333 0.255-6.799-1.795-9.321 4.286-0.745 8.019-3.797 9.411-8.238 1.987-6.335-1.539-13.079-7.875-15.065-0.865-0.271-1.739-0.43-2.604-0.503 4.765 2.753 7.165 8.518 5.45 13.993-1.391 4.438-5.123 7.491-9.413 8.238 2.054 2.521 2.843 5.987 1.8 9.32-0.961 3.062-3.263 5.33-6.056 6.372l3.812 1.196c5.504 1.725 8.568 7.587 6.843 13.091-0.063 0.205-0.145 0.401-0.22 0.602l5.027 1.575c0.077-0.199 0.158-0.395 0.222-0.601 1.724-5.503-1.339-11.365-6.844-13.089z" fill="#009993"/>  

</svg>
